<svg width="37" height="37" xmlns="http://www.w3.org/2000/svg">

 <g>
  <title>background</title>
  <rect fill="none" id="canvas_background" height="39" width="39" y="-1" x="-1"/>
 </g>
 <g>
  <title>Layer 1</title>
  <path stroke="null" id="svg_1" d="m24.806616,21.312315c-1.424297,0 -2.579603,1.729118 -2.579603,3.863674c0,2.134985 1.155307,3.864962 2.579603,3.864962c1.423503,0 2.578016,-1.729977 2.578016,-3.864962c0.000397,-2.134555 -1.154513,-3.863674 -2.578016,-3.863674zm8.978622,-10.05689c0.293588,-0.784245 0.308267,-5.240182 -1.257666,-9.505427c0,0 -3.593274,0.426482 -9.029802,4.464957c-1.139437,-0.340584 -3.06918,-0.511091 -4.997734,-0.511091s-3.857503,0.170077 -4.99813,0.510661c-5.436528,-4.038046 -9.028612,-4.464527 -9.028612,-4.464527c-1.566329,4.265245 -1.552444,8.721182 -1.258459,9.505427c-1.840477,2.163331 -2.964838,4.761303 -2.964838,8.311021c0,15.432361 11.826422,15.679746 14.81189,15.679746c0.675648,0 2.018613,0.001718 3.438149,0.003865c1.419536,-0.002147 2.763294,-0.003865 3.438149,-0.003865c2.985468,0 14.81189,-0.247385 14.81189,-15.679746c0,-3.549718 -1.124361,-6.14769 -2.964838,-8.311021zm-15.229261,22.093719l-0.111484,0c-7.482119,0 -13.308643,-0.967207 -13.308643,-8.838862c0,-1.885023 0.61455,-3.635615 2.074553,-5.088144c2.43638,-2.420594 6.556922,-1.138573 11.234089,-1.138573c0.017853,0 0.036897,-0.000429 0.05594,-0.001288c0.01944,0.000859 0.038087,0.001288 0.05594,0.001288c4.677168,0 8.798899,-1.281592 11.234089,1.138573c1.460003,1.452528 2.074553,3.203121 2.074553,5.088144c-0.000397,7.871655 -5.82692,8.838862 -13.309039,8.838862zm-6.362519,-12.036829c-1.423503,0 -2.578016,1.729118 -2.578016,3.863674c0,2.134985 1.154513,3.864962 2.578016,3.864962c1.42509,0 2.579603,-1.729977 2.579603,-3.864962c-0.000397,-2.134555 -1.15491,-3.863674 -2.579603,-3.863674z"/>
  <g id="svg_2"/>
  <g id="svg_3"/>
  <g id="svg_4"/>
  <g id="svg_5"/>
  <g id="svg_6"/>
  <g id="svg_7"/>
  <g id="svg_8"/>
  <g id="svg_9"/>
  <g id="svg_10"/>
  <g id="svg_11"/>
  <g id="svg_12"/>
  <g id="svg_13"/>
  <g id="svg_14"/>
  <g id="svg_15"/>
  <g id="svg_16"/>
 </g>
</svg>